<svg width="100" height="100" viewBox="0 0 100 100" fill="none" xmlns="http://www.w3.org/2000/svg">
<rect x="3" y="3" width="94" height="94" fill="#131B35"/>
<path d="M48.9062 75H23.0625V29.3125H48.9062V35.625H30.5312V48.0625H47.75V54.3125H30.5312V68.6562H48.9062V75ZM81.25 65.1562C81.25 68.5312 80.0208 71.125 77.5625 72.9375C75.1042 74.7292 71.5833 75.625 67 75.625C62.3958 75.625 58.6979 74.9271 55.9062 73.5312V67.1875C59.9688 69.0625 63.75 70 67.25 70C71.7708 70 74.0312 68.6354 74.0312 65.9062C74.0312 65.0312 73.7812 64.3021 73.2812 63.7188C72.7812 63.1354 71.9583 62.5312 70.8125 61.9062C69.6667 61.2812 68.0729 60.5729 66.0312 59.7812C62.0521 58.2396 59.3542 56.6979 57.9375 55.1562C56.5417 53.6146 55.8438 51.6146 55.8438 49.1562C55.8438 46.1979 57.0312 43.9062 59.4062 42.2812C61.8021 40.6354 65.0521 39.8125 69.1562 39.8125C73.2188 39.8125 77.0625 40.6354 80.6875 42.2812L78.3125 47.8125C74.5833 46.2708 71.4479 45.5 68.9062 45.5C65.0312 45.5 63.0938 46.6042 63.0938 48.8125C63.0938 49.8958 63.5938 50.8125 64.5938 51.5625C65.6146 52.3125 67.8229 53.3438 71.2188 54.6562C74.0729 55.7604 76.1458 56.7708 77.4375 57.6875C78.7292 58.6042 79.6875 59.6667 80.3125 60.875C80.9375 62.0625 81.25 63.4896 81.25 65.1562Z" fill="#6883E4"/>
<rect x="3" y="3" width="94" height="94" stroke="#4A6DE8" stroke-width="6"/>
</svg>
